<svg width="764" height="923" viewBox="0 0 764 923" fill="none" xmlns="http://www.w3.org/2000/svg">
<g opacity="0.2">
<path d="M487 511L714.426 627.419C714.426 627.419 730.778 631.454 743.211 623.989C755.05 616.882 763 603.404 763 603.404C763 603.404 756.9 270.232 754.005 203.73C753.686 196.415 745.01 188.292 745.01 188.292L455.367 37.3425L457.166 121.394L674.848 239.753L682.044 514.207C681.856 516.029 681.241 517.787 680.245 519.353C679.314 520.335 678.03 520.948 676.647 521.068L673.049 519.353L532.5 443" stroke="white"/>
<path d="M245 445.5L23.8509 576.229C23.8509 576.229 13.4051 587.152 13.6819 601.651C13.9436 615.457 22.3982 627.074 22.3982 627.074C22.3982 627.074 331.691 788.438 390.791 819.067C397.292 822.436 408.658 818.961 408.658 818.961L689.196 656.855L612.928 616.178L397.199 737.48L145.879 606.009C144.393 604.938 140.929 604.021 140.068 602.377C139.68 601.081 139.484 600.005 140.068 598.746L145.879 594.388L285.5 520M347.807 408.44C352.832 411.805 362.975 420.533 365.966 425.873C368.871 432.41 368.871 444.758 368.871 444.758" stroke="white"/>
<path d="M423.5 276L416.002 29.3941C416.002 29.3941 411.49 13.8772 398.496 7.34173C386.124 1.11848 369.913 1.29002 369.913 1.29002C369.913 1.29002 70.4564 172.85 11.5221 208.479C5.03846 212.398 2.00171 223.624 2.00171 223.624L9.7591 538.234L85.176 494.738L83.8051 255.839L329.392 112.727C331.142 111.971 333.048 111.599 334.969 111.639C336.326 111.918 337.525 112.673 338.326 113.755L338.567 117.581L339.5 271.5M402.745 381.315C397.06 383.989 390.812 385.396 384.472 385.432C375.159 385.209 364.816 380.407 364.816 380.407" stroke="white"/>
<path d="M357.892 378.01L357.876 378L357.859 377.99L152.34 266.999L230.559 219.838L337.112 270.99L337.14 271.008C337.178 271.033 337.234 271.07 337.308 271.118C337.455 271.214 337.673 271.354 337.957 271.532C338.526 271.889 339.361 272.398 340.43 273.014C342.566 274.244 345.638 275.897 349.381 277.591C356.863 280.977 367.056 284.539 377.851 285.2C388.858 285.875 400.429 283.649 409.231 281.265C413.636 280.072 417.356 278.838 419.975 277.901C421.285 277.432 422.32 277.038 423.028 276.76C423.382 276.622 423.655 276.512 423.839 276.437C423.931 276.4 424.001 276.371 424.049 276.351L424.103 276.329L424.116 276.323L424.12 276.321L424.121 276.321C424.121 276.321 424.121 276.321 424.113 276.3L424.122 276.321L424.145 276.311L424.167 276.299L534.443 216.301L614.449 258.199L412.624 376.23L412.597 376.246L412.573 376.264L412.573 376.264L412.571 376.265L412.565 376.27L412.538 376.291C412.518 376.306 412.491 376.326 412.456 376.352L412.426 376.373C412.383 376.406 412.33 376.445 412.267 376.49C412.188 376.547 412.094 376.615 411.986 376.691C411.599 376.966 411.028 377.361 410.298 377.836C408.838 378.788 406.741 380.062 404.201 381.35C399.113 383.93 392.281 386.547 385.233 386.773C378.699 386.98 371.872 384.802 366.651 382.55C364.046 381.426 361.853 380.29 360.312 379.434C359.542 379.006 358.935 378.649 358.522 378.4C358.315 378.275 358.157 378.177 358.05 378.11C357.997 378.077 357.957 378.052 357.931 378.035L357.901 378.016L357.894 378.012L357.892 378.011L357.892 378.01Z" stroke="#27A5EF"/>
<path d="M426.23 404.575L426.248 404.566L426.265 404.557L629.243 290.32L632.953 378.487L533.554 440.881L533.523 440.895C533.482 440.914 533.421 440.941 533.341 440.978C533.181 441.052 532.945 441.162 532.642 441.308C532.036 441.599 531.159 442.034 530.069 442.608C527.891 443.757 524.864 445.467 521.464 447.711C514.67 452.196 506.361 458.833 500.373 467.423L500.373 467.423C494.271 476.181 490.516 486.857 488.286 495.32C487.17 499.556 486.434 503.247 485.977 505.879C485.748 507.196 485.589 508.248 485.488 508.972C485.437 509.334 485.4 509.615 485.376 509.805C485.364 509.9 485.355 509.972 485.349 510.021L485.342 510.077L485.341 510.091L485.34 510.095L485.34 510.096C485.34 510.097 485.34 510.097 485.837 510.153L485.34 510.097L485.337 510.123L485.337 510.15L484.696 631.18L406.847 676.313L400.579 450.617L400.578 450.584L400.573 450.552L400.573 450.552L400.573 450.55L400.572 450.543L400.567 450.51C400.562 450.481 400.556 450.436 400.547 450.377C400.531 450.26 400.507 450.084 400.479 449.856C400.423 449.399 400.35 448.731 400.284 447.891C400.151 446.211 400.042 443.845 400.142 441.106C400.342 435.618 401.376 428.679 404.679 422.756L404.28 422.534L404.679 422.756C407.741 417.263 413.11 412.718 417.753 409.534C420.068 407.946 422.191 406.704 423.734 405.86C424.505 405.438 425.131 405.116 425.563 404.9C425.779 404.791 425.947 404.71 426.06 404.655C426.117 404.628 426.16 404.608 426.188 404.594L426.22 404.579L426.228 404.576L426.229 404.575L426.23 404.575Z" stroke="#27A5EF"/>
<path d="M135.658 297.184L344.358 405.103L344.385 405.117L344.413 405.127L344.413 405.128L344.415 405.128L344.423 405.131L344.455 405.143C344.484 405.155 344.528 405.172 344.586 405.194C344.702 405.24 344.874 405.308 345.097 405.399C345.541 405.582 346.187 405.857 346.986 406.223C348.584 406.956 350.795 408.053 353.242 409.509C358.143 412.428 363.948 416.764 367.687 422.467C371.151 427.754 372.598 434.47 373.17 439.902C373.456 442.612 373.523 444.988 373.518 446.687C373.516 447.536 373.496 448.214 373.476 448.68C373.472 448.78 373.468 448.87 373.464 448.95C373.459 449.056 373.454 449.144 373.45 449.212C373.447 449.273 373.444 449.318 373.442 449.348L373.439 449.382L373.439 449.39L373.439 449.392L373.439 449.392L373.437 449.413L373.437 449.434L375.708 674.615L293.524 633.488L286.538 519.974L286.541 519.946C286.544 519.902 286.55 519.837 286.556 519.752C286.57 519.583 286.587 519.332 286.607 519.008C286.645 518.36 286.689 517.415 286.712 516.224C286.758 513.844 286.719 510.48 286.38 506.54C285.701 498.665 283.821 488.459 278.998 479.201C278.998 479.201 278.998 479.201 278.998 479.201L135.658 297.184ZM135.658 297.184L137.733 384.179L247.641 445.363L247.663 445.375L247.683 445.389L247.397 445.8L135.658 297.184Z" stroke="#27A5EF"/>
</g>
</svg>
