<svg width="329" height="380" viewBox="0 0 329 380" fill="none" xmlns="http://www.w3.org/2000/svg">
<path fill-rule="evenodd" clip-rule="evenodd" d="M202.04 49.5196L201.299 14.8649L320.719 77.1019C320.719 77.1019 324.297 80.4507 324.428 83.4671C325.621 110.886 328.137 248.254 328.137 248.254C328.137 248.254 324.859 253.811 319.977 256.741C314.851 259.819 308.11 258.155 308.11 258.155L213.166 209.356L213.166 258.151L181.272 277.251L179.046 181.066C179.217 178.578 179.977 176.16 181.272 173.994C183.274 170.868 187.205 168.336 187.205 168.336L271.764 120.243L273.248 156.313L232.452 181.773L291.049 213.599L292.533 214.306C293.103 214.257 293.633 214.004 294.016 213.599C294.427 212.954 294.681 212.229 294.758 211.477L291.791 98.3191L202.04 49.5196Z" fill="white"/>
<path fill-rule="evenodd" clip-rule="evenodd" d="M266.262 253.52L297.707 270.291L182.041 337.128C182.041 337.128 177.355 338.561 174.674 337.172C150.307 324.543 22.7847 258.013 22.7847 258.013C22.7847 258.013 19.2988 253.223 19.1909 247.531C19.0768 241.553 23.3836 237.049 23.3836 237.049L115.324 182.843L71.2762 156.927L70.1025 122.947L156.952 167.869C159.024 169.257 163.205 172.855 164.439 175.057C165.636 177.752 165.636 182.843 165.636 182.843L167.524 276.281L135.365 259.649L133.293 212.93L73.6962 244.536L71.3004 246.333C71.0594 246.852 71.1404 247.296 71.3004 247.83C71.6554 248.508 73.0836 248.886 73.6962 249.328L177.316 303.533L266.262 253.52Z" fill="white"/>
<path fill-rule="evenodd" clip-rule="evenodd" d="M48.668 203.45L17.5735 221.384L14.3751 91.669C14.3751 91.669 15.6271 87.0408 18.3004 85.4247C42.5991 70.7347 166.066 0.000193056 166.066 0.000193056C166.066 0.000193056 172.75 -0.070531 177.851 2.49533C183.208 5.18991 185.069 11.5876 185.069 11.5876L188.229 114.371L232.166 89.3676L265.821 106.771L179.603 156.685C177.259 157.788 174.682 158.368 172.069 158.383C168.229 158.291 163.965 156.311 163.965 156.311L78.021 110.53L110.029 91.2764L153.543 112.235L153.142 47.9475L153.042 46.3696C152.712 45.9236 152.218 45.6124 151.658 45.4976C150.866 45.4811 150.08 45.6343 149.359 45.946L48.1028 104.952L48.668 203.45Z" fill="white"/>
<path fill-rule="evenodd" clip-rule="evenodd" d="M108.599 89.8745L75.9442 109.563L160.998 155.496C160.998 155.496 166.912 159.315 172.389 159.142C178.287 158.953 183.78 154.767 183.78 154.767L267.314 105.915L233.9 88.4161L188.336 113.206C188.336 113.206 178.363 117.404 169.351 116.851C160.519 116.31 152.644 111.019 152.644 111.019L108.599 89.8745Z" fill="#27A5EF"/>
<path fill-rule="evenodd" clip-rule="evenodd" d="M274.729 155.63L273.18 118.824L189.199 166.088C189.199 166.088 182.791 169.059 180.22 173.671C177.451 178.636 178.503 185.264 178.503 185.264L181.097 278.666L213.597 259.824L213.862 209.806C213.862 209.806 215.032 199.471 220.024 192.306C224.92 185.283 233.633 181.427 233.633 181.427L274.729 155.63Z" fill="#27A5EF"/>
<path fill-rule="evenodd" clip-rule="evenodd" d="M134.372 260.788L168.665 277.95L167.725 184.769C167.725 184.769 168.23 177.98 165.32 173.54C162.188 168.761 155.624 166.311 155.624 166.311L69.2676 121.656L70.1339 157.989L115.552 183.273C115.552 183.273 124.379 189.42 128.399 197.14C132.341 204.707 131.483 213.853 131.483 213.853L134.372 260.788Z" fill="#27A5EF"/>
</svg>
